<svg xmlns="http://www.w3.org/2000/svg" viewBox="12.5 20.333333333333332 240.5 227"><path d="M21.0 124.5 C20.3 107.4 37.2 58.9 40.7 53.3 C44.1 47.8 56.1 46.7 60.3 46.7 C64.6 46.7 87.4 53.3 91.3 53.3 C95.2 53.4 102.7 48.5 107.0 47.7 C111.3 46.8 135.9 45.3 143.3 43.3 C150.8 41.4 191.1 25.9 196.7 24.3 C202.3 22.8 209.8 23.3 210.7 24.7 C211.5 26.1 206.8 39.0 207.0 41.0 C207.3 43.0 213.3 46.6 213.7 48.3 C214.1 50.1 211.0 60.5 211.7 62.0 C212.3 63.5 220.3 65.1 221.3 66.3 C222.4 67.5 224.4 74.4 224.7 76.3 C224.9 78.3 224.8 87.4 224.7 89.7 C224.6 91.9 223.5 100.7 223.3 103.0 C223.2 105.3 221.5 114.8 223.0 117.3 C224.5 119.8 239.5 130.2 241.7 133.0 C243.8 135.8 251.3 149.0 249.0 151.0 C246.7 153.0 214.0 153.8 214.0 156.7 C214.0 159.6 248.7 183.8 248.7 186.0 C248.6 188.2 215.9 181.7 213.3 182.7 C210.8 183.6 219.5 195.7 218.0 197.7 C216.5 199.6 198.5 204.8 195.3 206.0 C192.2 207.2 181.8 211.4 180.0 212.0 C178.2 212.6 174.6 212.0 174.0 213.7 C173.4 215.4 174.1 229.9 173.3 232.3 C172.6 234.8 170.5 243.0 165.0 243.3 C159.5 243.7 113.0 237.1 107.7 236.7 C102.3 236.2 102.5 239.1 100.7 238.0 C98.8 236.9 87.7 224.4 85.7 223.0 C83.6 221.6 76.4 222.5 76.0 220.7 C75.6 218.8 80.3 203.2 81.0 200.7 C81.7 198.2 87.6 190.2 84.7 190.7 C81.7 191.1 46.5 207.3 45.3 206.0 C44.2 204.8 69.8 178.1 71.0 175.7 C72.2 173.3 61.8 177.7 60.0 177.3 C58.3 177.0 51.6 172.7 50.0 171.3 C48.4 169.9 43.0 162.4 40.3 160.7 C37.7 159.0 20.0 152.8 18.0 151.0 C16.0 149.2 16.3 140.7 16.5 138.5 C16.8 136.3 20.8 126.6 21.0 124.5Z" fill="currentColor"/></svg>